<?xml version="1.0" encoding="UTF-8" standalone="no"?>
<svg width="158px" height="109px" viewBox="0 0 158 109" version="1.1" xmlns="http://www.w3.org/2000/svg" xmlns:xlink="http://www.w3.org/1999/xlink" xmlns:sketch="http://www.bohemiancoding.com/sketch/ns">
    <!-- Generator: Sketch 3.4.2 (15855) - http://www.bohemiancoding.com/sketch -->
    <title>Page 1</title>
    <desc>Created with Sketch.</desc>
    <defs></defs>
    <g id="Page-1" stroke="none" stroke-width="1" fill="none" fill-rule="evenodd" sketch:type="MSPage">
        <g sketch:type="MSLayerGroup" transform="translate(0.000000, -1.000000)">
            <path d="M134.1335,24.9186 L149.7945,1.2646 C148.0035,0.9586 143.1285,5.4746 142.6405,5.6276 C142.1575,5.7806 138.1435,9.4546 137.8225,9.9896 C137.4975,10.5266 134.0825,13.8946 133.1065,14.5066 C132.1325,15.1186 125.3605,20.7066 125.3605,20.7066 L134.1335,24.9186 Z" id="Fill-1" fill="#000000" sketch:type="MSShapeGroup"></path>
            <path d="M129.0038,23.6335 C143.2058,6.4635 145.6828,0.0855 152.4078,1.3315 C155.9928,1.9955 156.5368,12.4825 156.9508,13.7215 C157.3638,14.9595 157.4098,34.2315 155.9878,35.9075 C154.8828,37.2055 154.2888,48.7575 154.2888,48.7575 L129.0038,23.6335 Z" id="Fill-3" fill="#000000" sketch:type="MSShapeGroup"></path>
            <path d="M84.6003,23.6335 L67.0073,2.5875 C69.3093,-1.2145 74.5483,2.8115 75.4763,3.4125 C76.0943,3.8035 79.0893,5.9745 80.2063,6.9975 C80.6053,7.3635 84.9543,10.8965 85.9413,11.7015 C87.1253,12.3445 94.8693,18.6485 96.1923,19.8705 C97.7823,21.3375 84.6003,23.6335 84.6003,23.6335" id="Fill-5" fill="#000000" sketch:type="MSShapeGroup"></path>
            <path d="M90.7829,23.6335 C76.5819,6.4635 74.1019,0.0855 67.3789,1.3315 C63.7939,1.9955 63.2499,12.4825 62.8359,13.7215 C62.4229,14.9595 62.1019,34.9215 63.7079,36.8035 C64.5799,38.6825 65.8179,51.5775 65.8179,51.5775 L90.7829,23.6335 Z" id="Fill-7" fill="#000000" sketch:type="MSShapeGroup"></path>
            <path d="M110.9054,94.6671 C80.1384,94.5291 62.5814,79.9301 64.8594,55.1581 C66.9224,32.7201 88.0574,18.3131 110.9054,17.8521 C138.2294,17.3021 153.8174,36.7931 155.5754,55.2961 C157.6384,77.0441 141.9464,94.8021 110.9054,94.6671" id="Fill-9" fill="#000000" sketch:type="MSShapeGroup"></path>
            <path d="M88.1689,33.636 C97.6489,33.636 105.3349,41.076 105.3349,50.253 C105.3349,59.43 97.6489,66.869 88.1689,66.869 C78.6889,66.869 71.0029,59.43 71.0029,50.253 C71.0029,41.076 78.6889,33.636 88.1689,33.636" id="Fill-11" fill="#FFFFFF" sketch:type="MSShapeGroup"></path>
            <path d="M88.7876,39.3256 C94.2106,39.3256 98.6076,43.7216 98.6076,49.1446 C98.6076,54.5686 94.2106,58.9646 88.7876,58.9646 C83.3646,58.9646 78.9686,54.5686 78.9686,49.1446 C78.9686,43.7216 83.3646,39.3256 88.7876,39.3256" id="Fill-13" fill="#000000" sketch:type="MSShapeGroup"></path>
            <path d="M132.2187,33.636 C141.6987,33.636 149.3847,41.076 149.3847,50.253 C149.3847,59.43 141.6987,66.869 132.2187,66.869 C122.7387,66.869 115.0527,59.43 115.0527,50.253 C115.0527,41.076 122.7387,33.636 132.2187,33.636" id="Fill-15" fill="#FFFFFF" sketch:type="MSShapeGroup"></path>
            <path d="M131.7353,39.3256 C137.1583,39.3256 141.5553,43.7216 141.5553,49.1446 C141.5553,54.5686 137.1583,58.9646 131.7353,58.9646 C126.3123,58.9646 121.9163,54.5686 121.9163,49.1446 C121.9163,43.7216 126.3123,39.3256 131.7353,39.3256" id="Fill-17" fill="#000000" sketch:type="MSShapeGroup"></path>
            <path d="M26.0567,109.9997 L124.7007,109.9997 L126.4557,109.9997 L130.4137,109.9997 C129.5327,104.4937 129.2377,96.1807 129.1647,93.6167 C128.8017,95.9547 128.2217,99.5287 127.7547,101.6107 C128.2217,99.5307 128.8027,95.9547 129.1647,93.6157 C129.3727,92.2687 129.5117,91.3207 129.5117,91.3207 L72.5687,79.7127 C67.4757,90.5877 54.2678741,93.6768439 51.5468741,94.8398439 C48.5878741,96.1028439 44.0114737,96.5175783 39.7285147,96.5175783 C35.4455557,96.5175783 31.0020082,96.4261779 22.5722647,89.2695314 C19.3310538,86.5178224 18.9987,87.0057 14.4737,79.2547 C10.1597,71.8677 9.1047,54.1107 9.1047,54.1107 C4.3317,49.0167 1.1207,54.9367 0.7067,58.2407 C0.2937,61.5457 -1.3153,70.3467 2.3597,86.0467 C6.0057,101.6307 24.6917,109.9997 26.0567,109.9997 Z" id="Fill-19" fill="#000000" sketch:type="MSShapeGroup"></path>
        </g>
    </g>
</svg>